<svg width="3rem" height="3rem" viewBox="0 0 20 20" xmlns="http://www.w3.org/2000/svg"><path fill-rule="evenodd" d="M11 2.774c0-.432.344-.774.77-.774H14V0h-2.23A2.769 2.769 0 009 2.774V5H5.55A5 5 0 00.573 9.516l-.557 5.737a3.416 3.416 0 006.712 1.17l.073-.291A1.5 1.5 0 018.255 15h3.74a1.5 1.5 0 011.454 1.132l.098.386a3.288 3.288 0 006.46-1.124l-.569-5.876A5 5 0 0014.461 5H11V2.774zM6 7a1 1 0 011 1v1h1a1 1 0 110 2H7v1a1 1 0 11-2 0v-1H4a1 1 0 110-2h1V8a1 1 0 011-1zm7.5 3a1.5 1.5 0 100-3 1.5 1.5 0 000 3zm3 4a1.5 1.5 0 100-3 1.5 1.5 0 000 3z" fill="#000000"></path></svg>